<mxfile host="app.diagrams.net" modified="2022-01-07T15:27:11.689Z" agent="5.0 (Windows NT 10.0; Win64; x64) AppleWebKit/537.36 (KHTML, like Gecko) Chrome/96.0.4664.110 Safari/537.36" etag="BURRj2LduMRUtWzQD0kK" version="16.2.2" type="github">
  <diagram id="_WT3NVbMiAGRYM9_kj40" name="Page-1">
    <mxGraphModel dx="868" dy="1559" grid="1" gridSize="10" guides="1" tooltips="1" connect="1" arrows="1" fold="1" page="1" pageScale="1" pageWidth="827" pageHeight="1169" math="0" shadow="0">
      <root>
        <mxCell id="0" />
        <mxCell id="1" parent="0" />
        <mxCell id="-n7K_DKkgM0FNg-m0orN-13" style="edgeStyle=orthogonalEdgeStyle;rounded=0;orthogonalLoop=1;jettySize=auto;html=1;exitX=1;exitY=0.5;exitDx=0;exitDy=0;entryX=0;entryY=0.5;entryDx=0;entryDy=0;" parent="1" source="-n7K_DKkgM0FNg-m0orN-2" target="-n7K_DKkgM0FNg-m0orN-6" edge="1">
          <mxGeometry relative="1" as="geometry" />
        </mxCell>
        <mxCell id="-n7K_DKkgM0FNg-m0orN-2" value="F21 Acquérir les données" style="rounded=0;whiteSpace=wrap;html=1;" parent="1" vertex="1">
          <mxGeometry x="320" y="-200" width="120" height="60" as="geometry" />
        </mxCell>
        <mxCell id="-n7K_DKkgM0FNg-m0orN-28" style="edgeStyle=orthogonalEdgeStyle;rounded=0;orthogonalLoop=1;jettySize=auto;html=1;exitX=1;exitY=0.5;exitDx=0;exitDy=0;entryX=0;entryY=0.5;entryDx=0;entryDy=0;" parent="1" source="-n7K_DKkgM0FNg-m0orN-6" target="-n7K_DKkgM0FNg-m0orN-19" edge="1">
          <mxGeometry relative="1" as="geometry" />
        </mxCell>
        <mxCell id="-n7K_DKkgM0FNg-m0orN-29" style="edgeStyle=orthogonalEdgeStyle;rounded=0;orthogonalLoop=1;jettySize=auto;html=1;exitX=1;exitY=0.5;exitDx=0;exitDy=0;entryX=0;entryY=0.5;entryDx=0;entryDy=0;" parent="1" source="-n7K_DKkgM0FNg-m0orN-6" target="-n7K_DKkgM0FNg-m0orN-22" edge="1">
          <mxGeometry relative="1" as="geometry" />
        </mxCell>
        <mxCell id="-n7K_DKkgM0FNg-m0orN-30" style="edgeStyle=orthogonalEdgeStyle;rounded=0;orthogonalLoop=1;jettySize=auto;html=1;exitX=1;exitY=0.5;exitDx=0;exitDy=0;entryX=0;entryY=0.5;entryDx=0;entryDy=0;" parent="1" source="-n7K_DKkgM0FNg-m0orN-6" target="-n7K_DKkgM0FNg-m0orN-23" edge="1">
          <mxGeometry relative="1" as="geometry" />
        </mxCell>
        <mxCell id="-n7K_DKkgM0FNg-m0orN-31" style="edgeStyle=orthogonalEdgeStyle;rounded=0;orthogonalLoop=1;jettySize=auto;html=1;exitX=1;exitY=0.5;exitDx=0;exitDy=0;entryX=0;entryY=0.5;entryDx=0;entryDy=0;" parent="1" source="-n7K_DKkgM0FNg-m0orN-6" target="-n7K_DKkgM0FNg-m0orN-24" edge="1">
          <mxGeometry relative="1" as="geometry" />
        </mxCell>
        <mxCell id="-n7K_DKkgM0FNg-m0orN-32" style="edgeStyle=orthogonalEdgeStyle;rounded=0;orthogonalLoop=1;jettySize=auto;html=1;exitX=1;exitY=0.5;exitDx=0;exitDy=0;entryX=0;entryY=0.5;entryDx=0;entryDy=0;" parent="1" source="-n7K_DKkgM0FNg-m0orN-6" target="-n7K_DKkgM0FNg-m0orN-25" edge="1">
          <mxGeometry relative="1" as="geometry" />
        </mxCell>
        <mxCell id="-n7K_DKkgM0FNg-m0orN-34" style="edgeStyle=orthogonalEdgeStyle;rounded=0;orthogonalLoop=1;jettySize=auto;html=1;exitX=1;exitY=0.5;exitDx=0;exitDy=0;entryX=0;entryY=0.5;entryDx=0;entryDy=0;" parent="1" source="-n7K_DKkgM0FNg-m0orN-6" target="-n7K_DKkgM0FNg-m0orN-26" edge="1">
          <mxGeometry relative="1" as="geometry" />
        </mxCell>
        <mxCell id="-n7K_DKkgM0FNg-m0orN-35" style="edgeStyle=orthogonalEdgeStyle;rounded=0;orthogonalLoop=1;jettySize=auto;html=1;exitX=1;exitY=0.5;exitDx=0;exitDy=0;entryX=0;entryY=0.5;entryDx=0;entryDy=0;" parent="1" source="-n7K_DKkgM0FNg-m0orN-6" target="-n7K_DKkgM0FNg-m0orN-27" edge="1">
          <mxGeometry relative="1" as="geometry" />
        </mxCell>
        <mxCell id="-n7K_DKkgM0FNg-m0orN-6" value="Acquérir l&#39;évènement" style="rounded=0;whiteSpace=wrap;html=1;" parent="1" vertex="1">
          <mxGeometry x="520" y="-200" width="120" height="60" as="geometry" />
        </mxCell>
        <mxCell id="-n7K_DKkgM0FNg-m0orN-38" style="edgeStyle=orthogonalEdgeStyle;rounded=0;orthogonalLoop=1;jettySize=auto;html=1;exitX=1;exitY=0.5;exitDx=0;exitDy=0;" parent="1" source="-n7K_DKkgM0FNg-m0orN-19" target="-n7K_DKkgM0FNg-m0orN-36" edge="1">
          <mxGeometry relative="1" as="geometry" />
        </mxCell>
        <mxCell id="-n7K_DKkgM0FNg-m0orN-19" value="Découverte d&#39;un piège" style="rounded=0;whiteSpace=wrap;html=1;" parent="1" vertex="1">
          <mxGeometry x="720" y="-440" width="120" height="60" as="geometry" />
        </mxCell>
        <mxCell id="-n7K_DKkgM0FNg-m0orN-39" style="edgeStyle=orthogonalEdgeStyle;rounded=0;orthogonalLoop=1;jettySize=auto;html=1;exitX=1;exitY=0.5;exitDx=0;exitDy=0;entryX=0;entryY=0.5;entryDx=0;entryDy=0;" parent="1" source="-n7K_DKkgM0FNg-m0orN-22" target="-n7K_DKkgM0FNg-m0orN-37" edge="1">
          <mxGeometry relative="1" as="geometry" />
        </mxCell>
        <mxCell id="-n7K_DKkgM0FNg-m0orN-22" value="Réaction à un impondérable" style="rounded=0;whiteSpace=wrap;html=1;" parent="1" vertex="1">
          <mxGeometry x="720" y="-360" width="120" height="60" as="geometry" />
        </mxCell>
        <mxCell id="-n7K_DKkgM0FNg-m0orN-41" style="edgeStyle=orthogonalEdgeStyle;rounded=0;orthogonalLoop=1;jettySize=auto;html=1;exitX=1;exitY=0.5;exitDx=0;exitDy=0;entryX=0;entryY=0.5;entryDx=0;entryDy=0;" parent="1" source="-n7K_DKkgM0FNg-m0orN-23" target="-n7K_DKkgM0FNg-m0orN-40" edge="1">
          <mxGeometry relative="1" as="geometry" />
        </mxCell>
        <mxCell id="-n7K_DKkgM0FNg-m0orN-23" value="Problème technique sur un satellite" style="rounded=0;whiteSpace=wrap;html=1;" parent="1" vertex="1">
          <mxGeometry x="720" y="-280" width="120" height="60" as="geometry" />
        </mxCell>
        <mxCell id="-n7K_DKkgM0FNg-m0orN-43" style="edgeStyle=orthogonalEdgeStyle;rounded=0;orthogonalLoop=1;jettySize=auto;html=1;exitX=1;exitY=0.5;exitDx=0;exitDy=0;entryX=0;entryY=0.5;entryDx=0;entryDy=0;" parent="1" source="-n7K_DKkgM0FNg-m0orN-24" target="-n7K_DKkgM0FNg-m0orN-42" edge="1">
          <mxGeometry relative="1" as="geometry" />
        </mxCell>
        <mxCell id="-n7K_DKkgM0FNg-m0orN-24" value="Sortie d&#39;un opérateur embarqué" style="rounded=0;whiteSpace=wrap;html=1;" parent="1" vertex="1">
          <mxGeometry x="720" y="-200" width="120" height="60" as="geometry" />
        </mxCell>
        <mxCell id="-n7K_DKkgM0FNg-m0orN-45" style="edgeStyle=orthogonalEdgeStyle;rounded=0;orthogonalLoop=1;jettySize=auto;html=1;exitX=1;exitY=0.5;exitDx=0;exitDy=0;entryX=0;entryY=0.5;entryDx=0;entryDy=0;" parent="1" source="-n7K_DKkgM0FNg-m0orN-25" target="-n7K_DKkgM0FNg-m0orN-44" edge="1">
          <mxGeometry relative="1" as="geometry" />
        </mxCell>
        <mxCell id="-n7K_DKkgM0FNg-m0orN-25" value="Reprise de la progression" style="rounded=0;whiteSpace=wrap;html=1;" parent="1" vertex="1">
          <mxGeometry x="720" y="-120" width="120" height="60" as="geometry" />
        </mxCell>
        <mxCell id="-n7K_DKkgM0FNg-m0orN-47" style="edgeStyle=orthogonalEdgeStyle;rounded=0;orthogonalLoop=1;jettySize=auto;html=1;exitX=1;exitY=0.5;exitDx=0;exitDy=0;" parent="1" source="-n7K_DKkgM0FNg-m0orN-26" target="-n7K_DKkgM0FNg-m0orN-46" edge="1">
          <mxGeometry relative="1" as="geometry" />
        </mxCell>
        <mxCell id="-n7K_DKkgM0FNg-m0orN-26" value="Départ d&#39;un satellite aérien vers la base arrière" style="rounded=0;whiteSpace=wrap;html=1;" parent="1" vertex="1">
          <mxGeometry x="720" y="-40" width="120" height="60" as="geometry" />
        </mxCell>
        <mxCell id="-n7K_DKkgM0FNg-m0orN-49" style="edgeStyle=orthogonalEdgeStyle;rounded=0;orthogonalLoop=1;jettySize=auto;html=1;exitX=1;exitY=0.5;exitDx=0;exitDy=0;entryX=0;entryY=0.5;entryDx=0;entryDy=0;" parent="1" source="-n7K_DKkgM0FNg-m0orN-27" target="-n7K_DKkgM0FNg-m0orN-48" edge="1">
          <mxGeometry relative="1" as="geometry" />
        </mxCell>
        <mxCell id="-n7K_DKkgM0FNg-m0orN-27" value="Autres évènements" style="rounded=0;whiteSpace=wrap;html=1;" parent="1" vertex="1">
          <mxGeometry x="720" y="40" width="120" height="60" as="geometry" />
        </mxCell>
        <mxCell id="-n7K_DKkgM0FNg-m0orN-36" value="Information donnée par un Husky ou un Drone" style="ellipse;whiteSpace=wrap;html=1;" parent="1" vertex="1">
          <mxGeometry x="950" y="-450" width="120" height="80" as="geometry" />
        </mxCell>
        <mxCell id="-n7K_DKkgM0FNg-m0orN-37" value="Impondérable fourni par la lecture du QR Code" style="ellipse;whiteSpace=wrap;html=1;" parent="1" vertex="1">
          <mxGeometry x="1090" y="-370" width="120" height="80" as="geometry" />
        </mxCell>
        <mxCell id="-n7K_DKkgM0FNg-m0orN-40" value="Communiqué par le satellite directement ou obervations humaines" style="ellipse;whiteSpace=wrap;html=1;" parent="1" vertex="1">
          <mxGeometry x="950" y="-290" width="120" height="80" as="geometry" />
        </mxCell>
        <mxCell id="-n7K_DKkgM0FNg-m0orN-42" value="Donnée opérateur" style="ellipse;whiteSpace=wrap;html=1;" parent="1" vertex="1">
          <mxGeometry x="1090" y="-210" width="120" height="80" as="geometry" />
        </mxCell>
        <mxCell id="-n7K_DKkgM0FNg-m0orN-44" value="Donnée opérateur + Satellites (zone clear)" style="ellipse;whiteSpace=wrap;html=1;" parent="1" vertex="1">
          <mxGeometry x="940" y="-130" width="120" height="80" as="geometry" />
        </mxCell>
        <mxCell id="-n7K_DKkgM0FNg-m0orN-46" value="Donnée opérateur" style="ellipse;whiteSpace=wrap;html=1;" parent="1" vertex="1">
          <mxGeometry x="1080" y="-50" width="120" height="80" as="geometry" />
        </mxCell>
        <mxCell id="-n7K_DKkgM0FNg-m0orN-48" value="Donnée opérateur + Satellites (zone clear)" style="ellipse;whiteSpace=wrap;html=1;" parent="1" vertex="1">
          <mxGeometry x="940" y="30" width="120" height="80" as="geometry" />
        </mxCell>
      </root>
    </mxGraphModel>
  </diagram>
</mxfile>
